#!OML:ASF F:\VICON\USERDATA\INSTALL\Justin_Nancy\Justin_Nancy.ASF
:FULLY-SPECIFIED
:DEGREES
33
root -10.4193 17.2584 -17.1732 -1.69608 -4.23417 -6.19832
lowerback 7.93714 3.4087 2.79441
upperback -0.665827 4.98666 3.31957
thorax -5.20378 2.4334 1.27683
lowerneck -16.8182 -4.89451 -9.99867
upperneck 14.845 -5.72733 8.22526
head 7.8833 -2.5257 3.69307
rclavicle 2.70788e-014 1.82882e-014
rhumerus -44.2368 24.6087 -100.465
rradius 121.982
rwrist -4.14019
rhand -11.9174 26.1895
rfingers 7.12502
rthumb 14.1366 -3.30954
lclavicle 2.70788e-014 1.82882e-014
lhumerus -68.0911 -1.48377 81.1274
lradius 110.311
lwrist 16.5109
lhand -11.3354 10.1605
lfingers 7.12502
lthumb 14.6974 39.6195
rfemur 6.37276 0.792024 24.2233
rtibia 64.8352
rfoot 8.39244 -4.70917
rtoes 5.51371
lfemur -27.0532 8.17942 -24.8593
ltibia 26.5906
lfoot 5.55295 4.38832
ltoes 17.2175
34
root -10.4239 17.1465 -16.8036 -2.44099 -3.92689 -6.12556
lowerback 8.75168 3.25119 2.4658
upperback -0.33664 4.77137 3.38838
thorax -5.34911 2.33485 1.5184
lowerneck -17.1985 -4.84176 -10.0008
upperneck 14.7851 -5.59262 8.11839
head 7.91312 -2.46312 3.66964
rclavicle 2.48419e-014 7.95139e-016
rhumerus -43.9485 24.0456 -100.214
rradius 121.273
rwrist -3.5905
rhand -11.2307 26.3894
rfingers 7.12502
rthumb 14.7983 -3.06229
lclavicle 2.48419e-014 7.95139e-016
lhumerus -67.2819 -1.22353 80.0635
lradius 110.115
lwrist 17.0489
lhand -11.2674 10.2137
lfingers 7.12502
lthumb 14.7629 39.6679
rfemur 5.34862 -0.96885 22.8834
rtibia 67.6679
rfoot 6.84549 -6.57554
rtoes 6.11472
lfemur -26.7918 8.661 -25.4044
ltibia 30.3039
lfoot 1.77532 5.58791
ltoes 17.8227
35
root -10.4262 17.0468 -16.4496 -3.05499 -3.30697 -5.87976
lowerback 9.60221 3.10114 1.87573
upperback -0.42695 4.5512 3.40259
thorax -5.9687 2.23688 1.84211
lowerneck -16.1589 -4.71141 -9.97042
upperneck 14.4306 -5.49672 8.08298
head 7.60426 -2.44224 3.67305
rclavicle -1.1779e-014 -2.46493e-014
rhumerus -44.5152 23.0858 -100.34
rradius 120.519
rwrist -3.46332
rhand -10.9625 26.6731
rfingers 7.12502
rthumb 15.0566 -2.75933
lclavicle -1.1779e-014 -2.46493e-014
lhumerus -67.0095 -1.32792 79.232
lradius 109.803
lwrist 17.5567
lhand -11.4871 10.3873
lfingers 7.12502
lthumb 14.5512 39.857
rfemur 4.03714 -2.89458 21.3506
rtibia 70.4878
rfoot 5.38292 -7.98426
rtoes 8.02894
lfemur -26.7085 8.28968 -25.8206
ltibia 33.7248
lfoot -1.20311 6.02895
ltoes 15.5112
36
root -10.4361 16.951 -16.1093 -3.46323 -2.5162 -5.39782
lowerback 10.3635 2.78888 0.869849
upperback -0.104501 4.03997 3.55571
thorax -6.12708 2.01706 2.61368
lowerneck -17.405 -4.66182 -10.2965
upperneck 14.9253 -5.23151 7.99487
head 7.96497 -2.31647 3.722
rclavicle -6.87205e-014 -3.61788e-014
rhumerus -44.1155 23.029 -99.9773
rradius 119.674
rwrist -3.57982
rhand -11.6944 25.2778
rfingers 7.12502
rthumb 14.3514 -4.20609
lclavicle -6.87205e-014 -3.61788e-014
lhumerus -65.5767 -0.459936 78.6199
lradius 109.188
lwrist 18.1154
lhand -11.7784 10.5779
lfingers 7.12502
lthumb 14.2705 40.0676
rfemur 2.32326 -4.73801 19.7199
rtibia 73.3178
rfoot 3.81537 -9.11256
rtoes 10.6238
lfemur -26.6551 7.20447 -26.1851
ltibia 36.688
lfoot -3.63423 6.67815
ltoes 15.2286
37
root -10.4484 16.8652 -15.7741 -3.63489 -1.76233 -4.32909
lowerback 10.8449 2.64039 -0.598897
upperback 0.135898 3.65215 3.38018
thorax -6.20756 1.86687 3.30312
lowerneck -18.365 -4.7592 -10.2931
upperneck 15.2061 -5.23338 7.75048
head 8.21861 -2.32114 3.63127
rclavicle 2.14315e-015 -1.66979e-014
rhumerus -43.6507 22.3238 -99.605
rradius 118.869
rwrist -3.99101
rhand -11.6179 24.884
rfingers 7.12502
rthumb 14.4252 -4.59473
lclavicle 2.14315e-015 -1.66979e-014
lhumerus -63.7985 0.0393254 77.9327
lradius 108.258
lwrist 18.6946
lhand -11.8695 10.8482
lfingers 7.12502
lthumb 14.1828 40.344
rfemur 0.171486 -6.39087 17.5571
rtibia 76.0831
rfoot 2.2638 -9.81936
rtoes 13.0526
lfemur -26.6109 6.3878 -27.1956
ltibia 39.2905
lfoot -6.04864 6.67235
ltoes 14.4958
38
root -10.4623 16.7878 -15.448 -3.61647 -1.02677 -2.56644
lowerback 11.0259 2.5826 -2.73386
upperback 0.347125 3.27352 2.93411
thorax -6.15519 1.73422 4.10043
lowerneck -18.9861 -4.85521 -10.111
upperneck 15.2464 -5.3101 7.53529
head 8.33576 -2.35488 3.51155
rclavicle -3.10725e-014 -3.4191e-014
rhumerus -43.4349 21.3093 -99.3136
rradius 118.065
rwrist -4.35073
rhand -11.0619 26.3123
rfingers 7.12502
rthumb 14.9608 -3.1273
lclavicle -3.10725e-014 -3.4191e-014
lhumerus -61.7691 0.422432 77.2255
lradius 107.105
lwrist 19.2159
lhand -11.4929 10.9381
lfingers 7.12502
lthumb 14.5456 40.4081
rfemur -2.39092 -7.804 14.8008
rtibia 78.761
rfoot 0.523983 -10.0697
rtoes 14.3482
lfemur -26.7709 6.12427 -29.0649
ltibia 41.711
lfoot -8.13393 5.98125
ltoes 11.4309
39
root -10.4798 16.708 -15.1261 -3.54199 -0.636086 -1.06979
lowerback 11.0205 2.60505 -4.60207
upperback 0.527643 3.04154 2.52454
thorax -6.01573 1.66106 4.76985
lowerneck -19.254 -4.88265 -9.93258
upperneck 15.1813 -5.35985 7.49805
head 8.35862 -2.36548 3.45959
rclavicle -3.4837e-014 -1.59028e-015
rhumerus -43.6325 20.3052 -99.3232
rradius 117.316
rwrist -4.31127
rhand -11.4141 26.9098
rfingers 7.12502
rthumb 14.6216 -2.5548
lclavicle -3.4837e-014 -1.59028e-015
lhumerus -59.7792 0.723479 76.4973
lradius 105.933
lwrist 19.6888
lhand -11.5703 11.1755
lfingers 7.12502
lthumb 14.4711 40.6509
rfemur -5.17875 -8.66495 12.6486
rtibia 81.1485
rfoot -0.985553 -9.90359
rtoes 15.4906
lfemur -27.0851 6.39794 -30.6041
ltibia 44.1031
lfoot -9.47516 5.47643
ltoes 9.00894
40
root -10.4898 16.6414 -14.8067 -3.53624 -0.471997 -0.510712
lowerback 11.1213 2.67414 -5.25591
upperback 0.648839 3.02961 2.24485
thorax -5.96136 1.66419 4.84462
lowerneck -19.1224 -4.93238 -9.85973
upperneck 14.9909 -5.4944 7.70895
head 8.28884 -2.40559 3.50138
rclavicle 1.84746e-014 -3.77691e-015
rhumerus -43.9492 19.2092 -99.4528
rradius 116.571
rwrist -4.41953
rhand -12.1099 25.3435
rfingers 7.12502
rthumb 13.9511 -4.16846
lclavicle 1.84746e-014 -3.77691e-015
lhumerus -57.922 0.688014 75.9324
lradius 104.912
lwrist 19.726
lhand -12.2194 11.4536
lfingers 7.12502
lthumb 13.8456 40.9728
rfemur -7.99315 -9.06143 11.8964
rtibia 83.0031
rfoot -1.96678 -9.69964
rtoes 16.7608
lfemur -27.2845 6.80943 -31.0202
ltibia 46.4791
lfoot -10.6356 4.72726
ltoes 7.91134
41
root -10.4895 16.5938 -14.492 -3.70207 -0.328849 -0.33498
lowerback 11.3719 2.7743 -5.26766
upperback 0.937418 3.13372 1.97379
thorax -5.79289 1.69932 4.5411
lowerneck -19.3986 -5.06393 -9.55758
upperneck 14.8968 -5.74421 7.7881
head 8.32187 -2.49143 3.44122
rclavicle 2.83392e-014 1.09332e-014
rhumerus -43.7569 18.0679 -99.3427
rradius 115.816
rwrist -4.33612
rhand -12.6421 23.5623
rfingers 7.12502
rthumb 13.4382 -5.98426
lclavicle 2.83392e-014 1.09332e-014
lhumerus -55.9097 0.451115 75.5115
lradius 104.186
lwrist 19.133
lhand -13.1053 11.6896
lfingers 7.12502
lthumb 12.9917 41.2651
rfemur -10.5347 -9.19599 11.7528
rtibia 84.2517
rfoot -2.98237 -9.54433
rtoes 16.3815
lfemur -27.17 7.31662 -30.9756
ltibia 48.7536
lfoot -11.9925 3.75979
ltoes 7.35136
42
root -10.4879 16.5576 -14.1778 -3.88279 -0.111602 -0.378425
lowerback 11.5968 2.77439 -5.06989
upperback 1.23128 3.13937 1.79853
thorax -5.58611 1.68224 4.23957
lowerneck -19.7986 -5.15419 -9.40544
upperneck 15.1398 -5.92663 7.97821
head 8.49193 -2.53992 3.45425
rclavicle 2.63514e-014 -5.96354e-015
rhumerus -43.5752 17.1903 -99.2045
rradius 115.209
rwrist -3.52338
rhand -12.9422 23.2222
rfingers 7.12502
rthumb 13.1489 -6.34321
lclavicle 2.63514e-014 -5.96354e-015
lhumerus -54.2198 0.277679 75.1863
lradius 103.912
lwrist 18.3878
lhand -14.1175 12.1907
lfingers 7.12502
lthumb 12.0158 41.8257
rfemur -12.9127 -9.34413 11.9155
rtibia 84.9936
rfoot -4.17931 -9.17429
rtoes 13.5651
lfemur -26.8419 7.74123 -30.6397
ltibia 50.8719
lfoot -13.3021 2.87159
ltoes 7.41708
43
root -10.4858 16.5141 -13.871 -4.0816 0.155254 -0.837497
lowerback 11.8001 2.65078 -4.5426
upperback 1.50913 3.03649 1.81984
thorax -5.36676 1.60876 3.97968
lowerneck -19.9661 -5.18708 -9.56732
upperneck 15.2758 -6.00336 8.39641
head 8.59434 -2.53859 3.61409
rclavicle 2.97307e-014 -3.18055e-015
rhumerus -43.6956 16.6337 -99.1262
rradius 115.055
rwrist -2.49455
rhand -13.1839 23.2692
rfingers 7.12502
rthumb 12.9159 -6.3111
lclavicle 2.97307e-014 -3.18055e-015
lhumerus -52.6932 0.321253 75.1084
lradius 103.884
lwrist 17.8445
lhand -15.1078 12.6381
lfingers 7.12502
lthumb 11.0608 42.3267
rfemur -15.3676 -9.47064 12.6307
rtibia 85.3629
rfoot -5.15059 -8.70582
rtoes 9.98616
lfemur -26.3923 8.0267 -29.8547
ltibia 52.835
lfoot -14.4505 1.9351
ltoes 7.47272
44
root -10.482 16.4716 -13.5702 -4.33165 0.488305 -1.0251
lowerback 12.1945 2.45295 -4.28641
upperback 1.73402 2.79026 1.79717
thorax -5.30822 1.47564 3.84493
lowerneck -20.0875 -5.15169 -9.77404
upperneck 15.3202 -5.95154 8.71651
head 8.64335 -2.49066 3.76597
rclavicle 1.06226e-014 -2.57426e-014
rhumerus -43.9433 16.4228 -99.119
rradius 115.263
rwrist -2.1507
rhand -13.1917 23.3373
rfingers 7.12502
rthumb 12.9084 -6.24348
lclavicle 1.06226e-014 -2.57426e-014
lhumerus -51.5344 0.451316 75.1291
lradius 104.242
lwrist 17.8005
lhand -14.9752 12.1544
lfingers 7.12502
lthumb 11.1886 41.8361
rfemur -17.7589 -9.50361 13.0817
rtibia 85.3416
rfoot -6.05877 -8.20497
rtoes 7.93755
lfemur -25.8892 8.27666 -29.3917
ltibia 54.6453
lfoot -15.1349 1.00419
ltoes 7.39493
45
root -10.4736 16.4419 -13.2639 -4.55003 1.00901 -0.822128
lowerback 12.6312 2.21075 -4.4176
upperback 1.83683 2.42654 1.67634
thorax -5.40432 1.29747 3.84547
lowerneck -20.0838 -5.05691 -9.9403
upperneck 15.5286 -5.81441 8.85482
head 8.70964 -2.42197 3.8639
rclavicle -2.77802e-014 -1.58034e-014
rhumerus -44.3539 16.5345 -99.1257
rradius 115.708
rwrist -2.44084
rhand -12.8074 23.5656
rfingers 7.12502
rthumb 13.2789 -5.99142
lclavicle -2.77802e-014 -1.58034e-014
lhumerus -50.8534 0.171539 75.151
lradius 105.071
lwrist 18.4577
lhand -14.2209 11.6384
lfingers 7.12502
lthumb 11.9161 41.2792
rfemur -19.8854 -9.59047 13.0262
rtibia 84.9085
rfoot -7.14924 -7.55687
rtoes 6.49804
lfemur -25.4049 8.34585 -29.4177
ltibia 56.3299
lfoot -15.3221 0.41825
ltoes 4.75631
